<svg width="18" height="18" viewBox="0 0 18 18" fill="none" xmlns="http://www.w3.org/2000/svg">
<path d="M17.1336 12.266L11.8002 2.66602C11.0836 1.37435 10.0919 0.666016 9.00023 0.666016C7.90856 0.666016 6.91689 1.37435 6.20023 2.66602L0.866892 12.266C0.191892 13.491 0.116892 14.666 0.658559 15.591C1.20023 16.516 2.26689 17.0243 3.66689 17.0243H14.3336C15.7336 17.0243 16.8002 16.516 17.3419 15.591C17.8836 14.666 17.8086 13.4827 17.1336 12.266ZM8.37523 6.49935C8.37523 6.15768 8.65856 5.87435 9.00023 5.87435C9.34189 5.87435 9.62523 6.15768 9.62523 6.49935V10.666C9.62523 11.0077 9.34189 11.291 9.00023 11.291C8.65856 11.291 8.37523 11.0077 8.37523 10.666V6.49935ZM9.59189 13.7577C9.55023 13.791 9.50856 13.8243 9.46689 13.8577C9.41689 13.891 9.36689 13.916 9.31689 13.9327C9.26689 13.9577 9.21689 13.9743 9.15856 13.9827C9.10856 13.991 9.05023 13.9993 9.00023 13.9993C8.95023 13.9993 8.89189 13.991 8.83356 13.9827C8.78356 13.9743 8.73356 13.9577 8.68356 13.9327C8.63356 13.916 8.58356 13.891 8.53356 13.8577C8.49189 13.8243 8.45023 13.791 8.40856 13.7577C8.25856 13.5993 8.16689 13.3827 8.16689 13.166C8.16689 12.9493 8.25856 12.7327 8.40856 12.5744C8.45023 12.541 8.49189 12.5077 8.53356 12.4743C8.58356 12.441 8.63356 12.416 8.68356 12.3993C8.73356 12.3743 8.78356 12.3577 8.83356 12.3493C8.94189 12.3244 9.05856 12.3244 9.15856 12.3493C9.21689 12.3577 9.26689 12.3743 9.31689 12.3993C9.36689 12.416 9.41689 12.441 9.46689 12.4743C9.50856 12.5077 9.55023 12.541 9.59189 12.5744C9.74189 12.7327 9.83356 12.9493 9.83356 13.166C9.83356 13.3827 9.74189 13.5993 9.59189 13.7577Z" fill="white"/>
</svg>
