<svg width="20" height="20" viewBox="0 0 20 20" fill="none" xmlns="http://www.w3.org/2000/svg">
<path d="M17.5584 4.35768C16.2167 4.22435 14.875 4.12435 13.525 4.04935V4.04102L13.3417 2.95768C13.2167 2.19102 13.0334 1.04102 11.0834 1.04102H8.90005C6.95838 1.04102 6.77505 2.14102 6.64172 2.94935L6.46672 4.01602C5.69172 4.06602 4.91672 4.11602 4.14172 4.19102L2.44172 4.35768C2.09172 4.39102 1.84172 4.69935 1.87505 5.04102C1.90838 5.38268 2.20838 5.63268 2.55838 5.59935L4.25838 5.43268C8.62505 4.99935 13.0251 5.16602 17.4417 5.60768C17.4667 5.60768 17.4834 5.60768 17.5084 5.60768C17.8251 5.60768 18.1 5.36602 18.1334 5.04102C18.1584 4.69935 17.9084 4.39102 17.5584 4.35768Z" fill="white"/>
<path d="M16.025 6.78398C15.825 6.57565 15.55 6.45898 15.2666 6.45898H4.73329C4.44995 6.45898 4.16662 6.57565 3.97495 6.78398C3.78329 6.99232 3.67495 7.27565 3.69162 7.56732L4.20829 16.1173C4.29995 17.384 4.41662 18.9673 7.32495 18.9673H12.675C15.5833 18.9673 15.7 17.3923 15.7916 16.1173L16.3083 7.57565C16.325 7.27565 16.2166 6.99232 16.025 6.78398ZM11.3833 14.7923H8.60829C8.26662 14.7923 7.98329 14.509 7.98329 14.1673C7.98329 13.8257 8.26662 13.5423 8.60829 13.5423H11.3833C11.725 13.5423 12.0083 13.8257 12.0083 14.1673C12.0083 14.509 11.725 14.7923 11.3833 14.7923ZM12.0833 11.459H7.91662C7.57495 11.459 7.29162 11.1757 7.29162 10.834C7.29162 10.4923 7.57495 10.209 7.91662 10.209H12.0833C12.425 10.209 12.7083 10.4923 12.7083 10.834C12.7083 11.1757 12.425 11.459 12.0833 11.459Z" fill="white"/>
</svg>
